<svg width="181" height="37" viewBox="0 0 181 37" fill="none" xmlns="http://www.w3.org/2000/svg">
<path d="M24.48 8.01599C23.52 8.01599 22.688 7.66394 21.984 6.95996C21.28 6.25598 20.928 5.42395 20.928 4.46399C20.928 3.47205 21.28 2.64001 21.984 1.96802C22.688 1.26404 23.52 0.911987 24.48 0.911987C25.44 0.911987 26.272 1.26404 26.976 1.96802C27.68 2.64001 28.032 3.47205 28.032 4.46399C28.032 5.42395 27.68 6.25598 26.976 6.95996C26.272 7.66394 25.44 8.01599 24.48 8.01599Z" fill="#50A98D"/>
<path d="M4.84799 36V16.224H0.575989V11.52H4.84799V7.92004C4.84799 5.74402 5.45599 4.04797 6.672 2.83203C7.92001 1.58398 9.63199 0.959961 11.808 0.959961H17.28V5.66394H12.816C12.08 5.66394 11.488 5.88794 11.04 6.33594C10.592 6.78406 10.368 7.39197 10.368 8.16003V11.52H27.216V36H21.696V16.224H10.368V36H4.84799Z" fill="#50A98D"/>
<path d="M38.8207 34.368C40.8047 35.4561 43.0608 36 45.5887 36H48.5648V31.296H45.4927C44.0208 31.296 42.7087 30.976 41.5568 30.3361C40.4367 29.6639 39.5568 28.752 38.9167 27.6C38.2768 26.448 37.9568 25.168 37.9568 23.76C37.9568 22.3521 38.2768 21.072 38.9167 19.92C39.5568 18.7679 40.4367 17.8719 41.5568 17.2321C42.7087 16.5601 44.0208 16.224 45.4927 16.224H54.8625V29.04C54.8625 31.184 55.4705 32.88 56.6865 34.1281C57.9345 35.376 59.6465 36 61.8225 36H78.6758V11.52H73.1558V31.3H67.9185V31.296H62.7825C62.0465 31.296 61.4545 31.072 61.0065 30.624C60.5585 30.144 60.3345 29.536 60.3345 28.8V16.224H67.9665V11.52H60.3345V5.37598H54.8625V11.52H50.6385V11.525H48.5648V11.52H45.5887C43.0608 11.52 40.8047 12.064 38.8207 13.152C36.8368 14.24 35.2687 15.712 34.1168 17.568C32.9648 19.392 32.3888 21.4561 32.3888 23.76C32.3888 26.064 32.9648 28.144 34.1168 30C35.2687 31.824 36.8368 33.28 38.8207 34.368Z" fill="#50A98D"/>
<path d="M73.3958 7.05603C74.0998 7.76001 74.9318 8.11194 75.8918 8.11194C76.8838 8.11194 77.7158 7.76001 78.3878 7.05603C79.0917 6.35205 79.4438 5.52002 79.4438 4.56006C79.4438 3.59998 79.0917 2.76794 78.3878 2.06396C77.7158 1.35999 76.8838 1.00806 75.8918 1.00806C74.9318 1.00806 74.0998 1.35999 73.3958 2.06396C72.6917 2.76794 72.3398 3.59998 72.3398 4.56006C72.3398 5.52002 72.6917 6.35205 73.3958 7.05603Z" fill="#50A98D"/>
<path d="M97.1044 36C94.5764 36 92.3204 35.4561 90.3364 34.368C88.3524 33.28 86.7844 31.824 85.6324 30C84.4804 28.144 83.9044 26.064 83.9044 23.76C83.9044 21.4561 84.4804 19.392 85.6324 17.568C86.7844 15.712 88.3524 14.24 90.3364 13.152C92.3204 12.064 94.5764 11.52 97.1044 11.52H100.08V16.224H97.0084C95.5364 16.224 94.2244 16.5601 93.0724 17.2321C91.9524 17.8719 91.0724 18.7679 90.4324 19.92C89.7924 21.072 89.4724 22.3521 89.4724 23.76C89.4724 25.168 89.7924 26.448 90.4324 27.6C91.0724 28.752 91.9524 29.6639 93.0724 30.3361C94.2244 30.976 95.5364 31.296 97.0084 31.296H100.08V31.3H104.89V0.959961H110.41V13.968C111.402 12.912 112.554 12.144 113.866 11.6639C115.178 11.184 116.506 10.944 117.85 10.944C120.09 10.944 121.994 11.424 123.562 12.384C125.162 13.312 126.378 14.608 127.21 16.272C128.042 17.9041 128.458 19.776 128.458 21.8879V36H122.986V21.936C122.986 20.688 122.682 19.6 122.074 18.672C121.498 17.712 120.73 16.976 119.77 16.464C118.842 15.92 117.802 15.6479 116.65 15.6479C115.562 15.6479 114.538 15.9041 113.578 16.416C112.618 16.928 111.85 17.6479 111.274 18.576C110.698 19.504 110.41 20.5601 110.41 21.744V36H97.1044Z" fill="#50A98D"/>
<path fill-rule="evenodd" clip-rule="evenodd" d="M145.014 36.576C142.678 36.576 140.662 36 138.966 34.848C137.27 33.696 135.958 32.16 135.03 30.24C134.134 28.288 133.686 26.144 133.686 23.808C133.686 21.376 134.198 19.2 135.222 17.28C136.278 15.328 137.766 13.792 139.686 12.672C141.638 11.52 143.958 10.944 146.646 10.944C149.302 10.944 151.558 11.52 153.414 12.672C155.302 13.792 156.742 15.328 157.734 17.28C158.758 19.2 159.27 21.344 159.27 23.712V36H153.75V31.4399H153.654C153.174 32.3361 152.55 33.184 151.782 33.984C151.014 34.752 150.07 35.376 148.95 35.856C147.83 36.3361 146.518 36.576 145.014 36.576ZM146.502 31.8719C147.942 31.8719 149.19 31.52 150.246 30.816C151.334 30.08 152.182 29.104 152.79 27.8879C153.398 26.64 153.686 25.248 153.654 23.712C153.654 22.176 153.366 20.816 152.79 19.632C152.214 18.416 151.398 17.4561 150.342 16.752C149.286 16.016 148.022 15.6479 146.55 15.6479C145.014 15.6479 143.702 16.016 142.614 16.752C141.526 17.4561 140.694 18.416 140.118 19.632C139.542 20.848 139.254 22.224 139.254 23.76C139.254 25.264 139.542 26.64 140.118 27.8879C140.694 29.104 141.51 30.08 142.566 30.816C143.654 31.52 144.966 31.8719 146.502 31.8719Z" fill="#50A98D"/>
<path d="M169.186 34.1281C170.435 35.376 172.147 36 174.323 36H180.418V31.296H175.283C174.547 31.296 173.954 31.072 173.507 30.624C173.059 30.144 172.835 29.536 172.835 28.8V16.224H180.466V11.52H172.835V5.37598H167.362V11.52H163.138V16.224H167.362V29.04C167.362 31.184 167.97 32.88 169.186 34.1281Z" fill="#50A98D"/>
</svg>
