<svg width="33" height="36" viewBox="0 0 33 36" fill="none" xmlns="http://www.w3.org/2000/svg">
<path d="M4.272 35.088V15.312H0V10.608H4.272V7.00806C4.272 4.83203 4.88 3.13599 6.09601 1.92004C7.34402 0.671997 9.056 0.0479736 11.232 0.0479736H16.704V4.75195H12.24C11.504 4.75195 10.912 4.97595 10.464 5.42395C10.016 5.87207 9.79202 6.47998 9.79202 7.24805V10.608H16.704V15.312H9.79202V35.088H4.272Z" fill="#287B62"/>
<path d="M29.5284 35.088C27.0004 35.088 24.7444 34.5441 22.7604 33.4561C20.7764 32.368 19.2084 30.912 18.0564 29.088C16.9044 27.2321 16.3284 25.152 16.3284 22.848C16.3284 20.5441 16.9044 18.48 18.0564 16.656C19.2084 14.8 20.7764 13.328 22.7604 12.24C24.7444 11.152 27.0004 10.608 29.5284 10.608H32.5044V15.312H29.4324C27.9604 15.312 26.6484 15.6481 25.4964 16.3201C24.3764 16.96 23.4964 17.856 22.8564 19.0081C22.2164 20.16 21.8964 21.4401 21.8964 22.848C21.8964 24.256 22.2164 25.536 22.8564 26.688C23.4964 27.84 24.3764 28.752 25.4964 29.4241C26.6484 30.064 27.9604 30.384 29.4324 30.384H32.5044V30.3881V35.088H29.5284Z" fill="#287B62"/>
</svg>
